<svg xmlns="http://www.w3.org/2000/svg" version="1.1" xmlns:xlink="http://www.w3.org/1999/xlink" viewBox="0 0 200 200" width="200" height="200"><rect width="200" height="200" fill="url('#gradient')"></rect><defs><linearGradient id="gradient" gradientTransform="rotate(45 0.5 0.5)"><stop offset="0%" stop-color="#c3becb"></stop><stop offset="100%" stop-color="#c9c0ee"></stop></linearGradient></defs><g><g fill="#433035" transform="matrix(3.3745880629805933,0,0,3.3745880629805933,6.38478620219955,124.97429451022293)" stroke="#64637b" stroke-width="0.2"><path d="M4.50-14.22L4.50-2.64L10.47-2.64L10.47 0L1.07 0L1.07-14.22L4.50-14.22ZM18.02 0L17.92-1.14Q16.88 0.20 15.10 0.20L15.10 0.20Q13.36 0.20 12.47-0.82Q11.57-1.83 11.57-3.72L11.57-3.72L11.57-10.57L14.86-10.57L14.86-3.70Q14.86-2.34 16.18-2.34L16.18-2.34Q17.31-2.34 17.79-3.15L17.79-3.15L17.79-10.57L21.10-10.57L21.10 0L18.02 0ZM22.49-5.36L22.49-5.36Q22.49-7.87 23.57-9.32Q24.66-10.76 26.60-10.76L26.60-10.76Q28.02-10.76 28.98-9.65L28.98-9.65L28.98-15L32.29-15L32.29 0L29.33 0L29.16-1.13Q28.14 0.20 26.58 0.20L26.58 0.20Q24.70 0.20 23.59-1.25Q22.49-2.70 22.49-5.36ZM25.79-5.76L25.78-5.16Q25.78-2.34 27.42-2.34L27.42-2.34Q28.52-2.34 28.98-3.26L28.98-3.26L28.98-7.29Q28.54-8.22 27.44-8.22L27.44-8.22Q25.92-8.22 25.79-5.76L25.79-5.76ZM39.27 0.20L39.27 0.20Q36.84 0.20 35.33-1.25Q33.83-2.71 33.83-5.03L33.83-5.03L33.83-5.30Q33.83-6.92 34.43-8.16Q35.03-9.40 36.18-10.08Q37.33-10.76 38.92-10.76L38.92-10.76Q41.14-10.76 42.43-9.38Q43.72-8.00 43.72-5.53L43.72-5.53L43.72-4.25L37.18-4.25Q37.35-3.36 37.95-2.85Q38.54-2.34 39.49-2.34L39.49-2.34Q41.05-2.34 41.93-3.44L41.93-3.44L43.44-1.66Q42.82-0.81 41.69-0.31Q40.57 0.20 39.27 0.20ZM38.90-8.22L38.90-8.22Q37.45-8.22 37.18-6.31L37.18-6.31L40.50-6.31L40.50-6.56Q40.52-7.35 40.10-7.79Q39.68-8.22 38.90-8.22ZM47.84-10.57L49.33-7.66L50.86-10.57L54.28-10.57L51.49-5.42L54.41 0L50.98 0L49.32-3.13L47.69 0L44.23 0L47.16-5.42L44.38-10.57L47.84-10.57Z"></path></g></g></svg>